# AST/ASF file generated using VICON BodyLanguage
# -----------------------------------------------
:version 1.10
:name VICON
:units
  mass 1.0
  length 0.45
  angle deg
:documentation
   .ast/.asf automatically generated from VICON data using
   VICON BodyBuilder and BodyLanguage model FoxedUp or BRILLIANT.MOD
:root
   order TX TY TZ RX RY RZ
   axis XYZ
   position 0 0 0  
   orientation 0 0 0 
:bonedata
  begin
     id 1 
     name lhipjoint
     direction 0.440178 -0.822639 0.359871 
     length 2.53113 
     axis 0 0 0  XYZ
  end
  begin
     id 2 
     name lfemur
     direction 0.34202 -0.939693 0  
     length 7.88132  
     axis 0 0 20  XYZ
    dof rx ry rz
    limits (-160.0 20.0)
           (-70.0 70.0)
           (-60.0 70.0)
  end
  begin
     id 3 
     name ltibia
     direction 0.34202 -0.939693 0   
     length 8.43783   
     axis 0 0 20   XYZ
    dof rx
    limits (-10.0 170.0)
  end
  begin
     id 4 
     name lfoot
     direction 0.0886351 -0.243523 0.965837   
     length 2.63414   
     axis -90 7.62852e-016 20   XYZ
    dof rx rz
    limits (-45.0 90.0)
           (-70.0 20.0)
  end
  begin
     id 5 
     name ltoes
     direction 1.53703e-011 -4.21717e-011 1   
     length 1.31427   
     axis -90 7.62852e-016 20   XYZ
    dof rx
    limits (-90.0 20.0)
  end
  begin
     id 6 
     name rhipjoint
     direction -0.399779 -0.839773 0.367367   
     length 2.47948  
     axis 0 0 0  XYZ 
  end
  begin
     id 7 
     name rfemur
     direction -0.34202 -0.939693 0   
     length 7.74806   
     axis 0 0 -20   XYZ
    dof rx ry rz
    limits (-160.0 20.0)
           (-70.0 70.0)
           (-70.0 60.0)
  end
  begin
     id 8 
     name rtibia
     direction -0.34202 -0.939693 0   
     length 8.74432   
     axis 0 0 -20   XYZ
    dof rx
    limits (-10.0 170.0)
 end
 begin
     id 9 
     name rfoot
     direction -0.108514 -0.298139 0.948334   
     length 2.66102  
     axis -90 -7.62852e-016 -20   XYZ
    dof rx rz
    limits (-45.0 90.0)
           (-20.0 70.0)
  end
  begin
     id 10 
     name rtoes
     direction -1.53392e-011 -4.22077e-011 1   
     length 1.31983   
     axis -90 -7.62852e-016 -20   XYZ
    dof rx
    limits (-90.0 20.0)
  end
  begin
     id 11 
     name lowerback
     direction 0.0113257 0.999866 0.0118602   
     length 2.58694   
     axis 0 0 0   XYZ
    dof rx ry rz
    limits (-20.0 45.0)
           (-30.0 30.0)
           (-30.0 30.0)
  end
  begin
     id 12 
     name upperback
     direction -0.0164747 0.995193 -0.0965375   
     length 2.52368   
     axis 0 0 0   XYZ
    dof rx ry rz
    limits (-20.0 45.0)
           (-30.0 30.0)
           (-30.0 30.0)
  end
  begin
     id 13 
     name thorax
     direction -0.0194301 0.99433 -0.104552   
     length 2.56099   
     axis 0 0 0   XYZ
    dof rx ry rz
    limits (-20.0 45.0)
           (-30.0 30.0)
           (-30.0 30.0)
  end
  begin
     id 14 
     name lowerneck
     direction 0.0148543 0.995587 -0.092657   
     length 1.71582   
     axis 0 0 0   XYZ
    dof rx ry rz
    limits (-20.0 45.0)
           (-30.0 30.0)
           (-30.0 30.0)
  end
  begin
     id 15 
     name upperneck
     direction -0.0135467 0.993656 -0.111639   
     length 1.68937   
     axis 0 0 0   XYZ
    dof rx ry rz
    limits (-20.0 45.0)
           (-30.0 30.0)
           (-30.0 30.0)
  end
  begin
     id 16
     name head
     direction -0.00615349 0.999547 -0.029448  
     length 1.7462  
     axis 0 0 0   XYZ
    dof rx ry rz
    limits (-20.0 45.0)
           (-30.0 30.0)
           (-30.0 30.0)
  end
  begin
     id 17 
     name lclavicle
     direction 0.988267 0.149885 0.0293713  
     length 4.47222  
     axis 0 0 0   XYZ
    dof ry rz
    limits (-20.0 10.0)
           (0.0 20.0)
  end
  begin
     id 18 
     name lhumerus
     direction 1 -4.48986e-011 -1.14833e-027   
     length 5.37148   
     axis 180 -30 -90   XYZ
    dof rx ry rz
    limits (-60.0 90.0)
           (-90.0 90.0)
           (-90.0 90.0)
  end
  begin
     id 19
     name lradius
     direction 0.999998 0.00170963 -0.000987055   
     length 3.94212   
     axis 180 -30 -90   XYZ
    dof rx
    limits (-10.0 170.0)
  end
  begin
     id 20
     name lwrist
     direction 0.999998 7.53149e-005 -0.00194706   
     length 1.97106   
     axis 4.65056e-015 90 90   XYZ
    dof ry
    limits (-180.0 0.0)
 end
  begin
     id 21 
     name lhand
     direction 1 -4.48973e-011 -1.31746e-026   
     length 1.17917   
     axis 8.4065e-015 90 90   XYZ
    dof rx rz
    limits (-90.0 90.0)
           (-45.0 45.0)
  end
  begin
     id 22 
     name lfingers
     direction 1 -4.49107e-011 -2.63492e-026   
     length 0.950679   
     axis 1.6813e-014 90 90   XYZ
    dof rx
    limits (0.0 90.0)
  end
  begin
     id 23
     name lthumb
     direction 0.707107 -6.35048e-011 0.707107   
     length 1.36499   
     axis -90 45 2.85299e-015   XYZ
    dof rx rz
    limits (-45.0 45.0)
           (-45.0 45.0)
  end
  begin
     id 24 
     name rclavicle
     direction -0.996699 0.0642895 -0.0495725   
     length 4.62611  
     axis 0 0 0   XYZ 
    dof ry rz
    limits (-10.0 20.0)
           (-20.0 0.0)
  end
  begin
     id 25 
     name rhumerus
     direction -1 -4.48919e-011 -2.41059e-027  
     length 5.4981   
     axis 180 30 90   XYZ
    dof rx ry rz
    limits (-90.0 60.0)
           (-90.0 90.0)
           (-90.0 90.0)
  end
  begin
     id 26 
     name rradius
     direction -0.999999 0.00118101 -0.000681858   
     length 3.48381   
     axis 180 30 90   XYZ
    dof rx
    limits (-10.0 170.0)
  end
  begin
     id 27 
     name rwrist
     direction -0.999999 0.000321823 -0.00132288   
     length 1.7419   
     axis 4.65056e-015 -90 -90   XYZ
    dof ry
    limits (-180.0 0.0)
  end
  begin
     id 28
     name rhand
     direction -1 -4.49022e-011 -1.31746e-026   
     length 1.34932   
     axis 8.4065e-015 -90 -90   XYZ
    dof rx rz
    limits (-90.0 90.0)
           (-45.0 45.0)
  end
  begin
     id 29
     name rfingers
     direction -1 -4.49178e-011 -2.63492e-026   
     length 1.08785   
     axis 1.6813e-014 -90 -90   XYZ
    dof rx
    limits (0.0 90.0)
  end
  begin
     id 30
     name rthumb
     direction -0.707107 -6.34713e-011 0.707107   
     length 1.56195   
     axis -90 -45 -2.85299e-015   XYZ
    dof rx rz
    limits (-45.0 45.0)
           (-45.0 45.0)
  end
:hierarchy
  begin
    root lhipjoint rhipjoint lowerback
    lhipjoint lfemur
    lfemur ltibia
    ltibia lfoot
    lfoot ltoes
    rhipjoint rfemur
    rfemur rtibia
    rtibia rfoot
    rfoot rtoes
    lowerback upperback
    upperback thorax
    thorax lowerneck lclavicle rclavicle
    lowerneck upperneck
    upperneck head
    lclavicle lhumerus
    lhumerus lradius
    lradius lwrist
    lwrist lhand lthumb
    lhand lfingers
    rclavicle rhumerus
    rhumerus rradius
    rradius rwrist
    rwrist rhand rthumb
    rhand rfingers
  end

#!OML:ASF X:\für Bonn\!DataBase\2005_08_10_Bjorn_Final\c3d\bjorn.ASF
:FULLY-SPECIFIED
:DEGREES
17
root 1.0392 19.0113 0.989702 -172.285 -4.77701 -182.73
lowerback 2.25825 1.07947 1.81998
upperback 5.94434 1.09825 -1.36087
thorax 4.94485 0.506125 -2.41899
lowerneck -4.75948 -2.48658 -1.03494
upperneck 5.69759 -3.27942 -0.078462
head 2.64515 -1.66879 0.0294371
rclavicle 7.85199e-015 -1.98785e-015
rhumerus 73.2244 1.73809 -76.0206
rradius 8.71884
rwrist 47.2762
rhand -12.9553 7.69753
rfingers 7.12502
rthumb 13.1363 -21.8687
lclavicle 7.85199e-015 -1.98785e-015
lhumerus 76.3146 -12.0388 70.4354
lradius 9.55213
lwrist -51.8391
lhand -19.9883 -8.32027
lfingers 7.12502
lthumb 6.35108 21.5645
rfemur 158.627 -171.099 -165.882
rtibia 38.0785
rfoot -22.6717 4.73135
rtoes -20.051
lfemur -20.8887 3.70774 -19.6996
ltibia 35.6336
lfoot -17.3928 -2.38702
ltoes -11.0259
18
root 1.04075 18.9835 1.07309 -171.943 -4.7056 -182.773
lowerback 3.1199 1.08387 1.87485
upperback 5.96215 1.09175 -1.38333
thorax 4.47731 0.490991 -2.48454
lowerneck -5.00694 -2.4813 -1.02646
upperneck 5.12407 -3.25766 -0.0630192
head 2.49899 -1.65066 0.0354712
rclavicle 3.04141e-014 -1.25234e-014
rhumerus 73.2942 1.65836 -75.8232
rradius 9.0013
rwrist 47.2775
rhand -13.271 7.66566
rfingers 7.12502
rthumb 12.8319 -21.9199
lclavicle 3.04141e-014 -1.25234e-014
lhumerus 76.5611 -11.937 70.2591
lradius 9.50698
lwrist -51.7012
lhand -20.4985 -8.55336
lfingers 7.12502
lthumb 5.85856 21.3456
rfemur 157.409 -171.456 -165.842
rtibia 39.0858
rfoot -22.9011 4.2097
rtoes -20.4656
lfemur -22.0261 3.50011 -19.8196
ltibia 36.5489
lfoot -17.6006 -1.98708
ltoes -11.7371
19
root 1.04309 18.946 1.15769 -171.625 -4.61527 -182.792
lowerback 4.03436 1.09584 1.94396
upperback 5.97632 1.09525 -1.39891
thorax 3.97944 0.479845 -2.55187
lowerneck -5.22468 -2.48711 -1.03167
upperneck 4.50174 -3.25433 -0.0439903
head 2.33235 -1.6434 0.0449799
rclavicle -7.45443e-015 3.97569e-016
rhumerus 73.3468 1.57553 -75.6248
rradius 9.35129
rwrist 47.2121
rhand -13.5722 7.7247
rfingers 7.12502
rthumb 12.5415 -21.8789
lclavicle -7.45443e-015 3.97569e-016
lhumerus 76.763 -11.8547 70.091
lradius 9.48029
lwrist -51.4955
lhand -21.0591 -8.81022
lfingers 7.12502
lthumb 5.31726 21.1031
rfemur 156.162 -171.823 -165.794
rtibia 40.1897
rfoot -23.1592 3.76087
rtoes -20.7103
lfemur -23.2188 3.35586 -19.9089
ltibia 37.5964
lfoot -17.8533 -1.65131
ltoes -12.592
20
root 1.04508 18.9012 1.24206 -171.255 -4.53506 -182.813
lowerback 4.89754 1.09663 2.00597
upperback 5.98269 1.08566 -1.41567
thorax 3.50371 0.462282 -2.61601
lowerneck -5.48428 -2.47512 -1.02916
upperneck 3.86085 -3.23137 -0.0316942
head 2.16784 -1.62817 0.0511595
rclavicle -1.77912e-014 -3.37934e-015
rhumerus 73.4183 1.5055 -75.4359
rradius 9.7174
rwrist 47.0798
rhand -13.9502 7.81641
rfingers 7.12502
rthumb 12.1771 -21.8092
lclavicle -1.77912e-014 -3.37934e-015
lhumerus 76.8857 -11.7816 69.921
lradius 9.54654
lwrist -51.3886
lhand -21.6487 -8.93453
lfingers 7.12502
lthumb 4.74795 20.9923
rfemur 154.807 -172.137 -165.743
rtibia 41.3931
rfoot -23.4353 3.31066
rtoes -20.9341
lfemur -24.527 3.22348 -19.9935
ltibia 38.7579
lfoot -18.1637 -1.36765
ltoes -13.2477
21
root 1.04845 18.849 1.32661 -170.89 -4.44769 -182.799
lowerback 5.75346 1.11413 2.09833
upperback 6.01222 1.09687 -1.42848
thorax 3.0607 0.455109 -2.69373
lowerneck -5.8064 -2.47307 -1.01105
upperneck 3.21639 -3.22779 -0.00708205
head 2.01441 -1.62408 0.0568848
rclavicle -1.98785e-016 -7.7526e-015
rhumerus 73.5386 1.34114 -75.2278
rradius 10.1033
rwrist 46.8704
rhand -14.2891 7.96441
rfingers 7.12502
rthumb 11.8503 -21.6803
lclavicle -1.98785e-016 -7.7526e-015
lhumerus 76.9714 -11.7493 69.7453
lradius 9.77728
lwrist -51.3546
lhand -22.2003 -8.97403
lfingers 7.12502
lthumb 4.21536 20.964
rfemur 153.407 -172.445 -165.66
rtibia 42.6829
rfoot -23.7497 2.94111
rtoes -20.9589
lfemur -25.8976 3.11782 -20.0343
ltibia 40.0441
lfoot -18.5299 -1.08489
ltoes -13.9128
22
root 1.05224 18.7912 1.40825 -170.5 -4.38381 -182.785
lowerback 6.55624 1.11947 2.16434
upperback 6.04188 1.09216 -1.4232
thorax 2.64729 0.438956 -2.7371
lowerneck -6.1389 -2.45895 -0.982922
upperneck 2.52645 -3.21324 -0.0340437
head 1.84745 -1.61844 0.0452708
rclavicle 5.1684e-015 -1.59028e-014
rhumerus 73.7371 1.44533 -74.0788
rradius 10.4701
rwrist 45.6792
rhand -14.6329 8.03445
rfingers 7.12502
rthumb 11.5188 -21.629
lclavicle 5.1684e-015 -1.59028e-014
lhumerus 76.9986 -11.6982 69.5853
lradius 10.0919
lwrist -51.378
lhand -22.6962 -8.97265
lfingers 7.12502
lthumb 3.73644 20.9743
rfemur 151.948 -172.717 -165.568
rtibia 44.0462
rfoot -24.087 2.52493
rtoes -21.0757
lfemur -27.3533 3.04146 -20.0728
ltibia 41.4336
lfoot -18.9518 -0.851146
ltoes -14.7605
23
root 1.0546 18.7237 1.48749 -170.092 -4.30566 -182.767
lowerback 7.31693 1.11969 2.23904
upperback 6.06599 1.08272 -1.41852
thorax 2.25317 0.421142 -2.78534
lowerneck -6.59841 -2.44124 -0.997589
upperneck 1.93828 -3.19616 -0.0305765
head 1.73835 -1.61375 0.0478401
rclavicle 1.09332e-015 -1.17283e-014
rhumerus 73.9938 1.56071 -72.7431
rradius 10.8287
rwrist 44.3707
rhand -14.9612 8.13814
rfingers 7.12502
rthumb 11.2021 -21.5428
lclavicle 1.09332e-015 -1.17283e-014
lhumerus 77.0458 -11.5397 69.7011
lradius 10.2963
lwrist -51.7818
lhand -23.0795 -8.88527
lfingers 7.12502
lthumb 3.3663 21.0679
rfemur 150.44 -172.909 -165.476
rtibia 45.4726
rfoot -24.4401 2.18487
rtoes -21.1873
lfemur -28.8735 3.01344 -20.1144
ltibia 42.9223
lfoot -19.3896 -0.646911
ltoes -15.457
24
root 1.05747 18.6497 1.56266 -169.687 -4.23011 -182.732
lowerback 8.03404 1.12331 2.3113
upperback 6.09452 1.07826 -1.40933
thorax 1.8895 0.405874 -2.82721
lowerneck -7.04532 -2.41393 -0.971948
upperneck 1.30746 -3.1757 -0.0599379
head 1.61189 -1.61059 0.0340041
rclavicle 1.0138e-014 2.5842e-015
rhumerus 74.3293 1.63113 -71.3568
rradius 11.1199
rwrist 43.044
rhand -15.2629 8.2772
rfingers 7.12502
rthumb 10.9112 -21.4193
lclavicle 1.0138e-014 2.5842e-015
lhumerus 77.2445 -11.395 69.5343
lradius 10.3701
lwrist -51.9758
lhand -23.5121 -8.84043
lfingers 7.12502
lthumb 2.94857 21.1189
rfemur 148.918 -173.123 -165.382
rtibia 46.9549
rfoot -24.8362 1.94552
rtoes -20.9784
lfemur -30.4309 3.00021 -20.1318
ltibia 44.5094
lfoot -19.8867 -0.45876
ltoes -16.2588
25
root 1.05913 18.5684 1.6364 -169.271 -4.16701 -182.678
lowerback 8.70826 1.12744 2.41142
upperback 6.1445 1.0746 -1.38723
thorax 1.57386 0.391505 -2.87086
lowerneck -7.52597 -2.37679 -0.92475
upperneck 0.669647 -3.15072 -0.122954
head 1.48829 -1.60897 0.00587583
rclavicle 1.50082e-014 7.15625e-015
rhumerus 74.7719 1.66578 -69.7459
rradius 11.3838
rwrist 41.5529
rhand -15.493 8.44503
rfingers 7.12502
rthumb 10.6892 -21.2631
lclavicle 1.50082e-014 7.15625e-015
lhumerus 77.6691 -11.2556 69.106
lradius 10.3032
lwrist -51.8051
lhand -23.8248 -8.73155
lfingers 7.12502
lthumb 2.64658 21.2318
rfemur 147.354 -173.292 -165.275
rtibia 48.5061
rfoot -25.2448 1.7878
rtoes -20.5523
lfemur -32.058 3.04264 -20.1378
ltibia 46.1933
lfoot -20.3871 -0.312075
ltoes -16.9635
26
root 1.05988 18.4769 1.7112 -168.863 -4.12647 -182.629
lowerback 9.38114 1.12612 2.52821
upperback 6.21899 1.06205 -1.37983
thorax 1.28624 0.372124 -2.93849
lowerneck -8.02941 -2.34354 -0.858106
upperneck 0.0174924 -3.1414 -0.175761
head 1.36402 -1.61819 -0.0229783
rclavicle 1.73937e-014 3.18055e-015
rhumerus 75.2923 1.59866 -68.3311
rradius 11.6118
rwrist 40.3462
rhand -15.7577 8.57937
rfingers 7.12502
rthumb 10.4339 -21.1417
lclavicle 1.73937e-014 3.18055e-015
lhumerus 78.2155 -11.112 68.4648
lradius 10.2324
lwrist -51.3844
lhand -24.0385 -8.59805
lfingers 7.12502
lthumb 2.44021 21.3677
rfemur 145.755 -173.4 -165.174
rtibia 50.1225
rfoot -25.6657 1.67477
rtoes -20.2011
lfemur -33.7386 3.06077 -20.1453
ltibia 47.9769
lfoot -20.9233 -0.170072
ltoes -17.7336
27
root 1.06002 18.375 1.78659 -168.465 -4.06798 -182.553
lowerback 10.0417 1.11814 2.6238
upperback 6.3252 1.03531 -1.32576
thorax 1.03725 0.342838 -2.94407
lowerneck -8.53677 -2.28699 -0.847006
upperneck -0.69679 -3.10739 -0.239451
head 1.22106 -1.61988 -0.0444315
rclavicle -8.15017e-015 3.97569e-015
rhumerus 75.9447 1.51534 -66.895
rradius 11.7933
rwrist 39.2637
rhand -15.9805 8.72596
rfingers 7.12502
rthumb 10.219 -21.0058
lclavicle -8.15017e-015 3.97569e-015
lhumerus 78.8386 -10.8744 67.624
lradius 10.1842
lwrist -50.5966
lhand -24.1979 -8.45081
lfingers 7.12502
lthumb 2.2862 21.5167
rfemur 144.103 -173.474 -165.053
rtibia 51.8277
rfoot -26.1029 1.68255
rtoes -19.8492
lfemur -35.465 3.1648 -20.1396
ltibia 49.8511
lfoot -21.4617 -0.103189
ltoes -18.3435
